<?xml version="1.0" standalone="no"?><!DOCTYPE svg PUBLIC "-//W3C//DTD SVG 1.1//EN" "http://www.w3.org/Graphics/SVG/1.1/DTD/svg11.dtd"><svg t="1724056090707" class="icon" viewBox="0 0 1024 1024" version="1.1" xmlns="http://www.w3.org/2000/svg" p-id="14550" width="256" height="256" xmlns:xlink="http://www.w3.org/1999/xlink"><path d="M514.069 931.168c-29.608 0-59.216-3.362-88.049-9.827-10.731-2.844-17.325-13.705-14.868-24.565 2.456-10.86 12.929-17.843 23.919-15.774 193.94 43.442 386.973-78.998 430.416-272.937 39.434-176.227-57.665-354.263-227.039-416.711-169.373-62.449-358.787 10.084-443.216 169.632-84.557 159.418-37.883 356.848 108.994 461.705 6.077 4.267 9.31 11.507 8.534 18.877-0.776 7.37-5.301 13.834-12.025 16.808-6.723 3.103-14.61 2.327-20.557-1.94-160.97-115.07-214.239-330.084-125.544-506.957S447.612 86.626 635.992 147.006c188.38 60.25 304.873 248.76 274.489 444.25-30.384 195.491-198.594 339.653-396.412 339.912z m0 0" fill="#777777" p-id="14551"></path><path d="M884.622 933.495c-5.56 0-10.86-2.198-14.74-6.206l-95.417-96.711c-8.017-8.146-7.887-21.204 0.258-29.22 8.146-8.017 21.204-7.887 29.22 0.258l95.419 96.711c5.818 5.948 7.499 14.74 4.266 22.497-3.103 7.629-10.602 12.67-19.006 12.67z m0 0" fill="#777777" p-id="14552"></path><path d="M646.465 730.117H380.25c-9.31 0-16.809-5.818-16.809-12.93v-18.876c-22.497-2.974-47.967-11.378-68.783-23.143-32.84-18.49-50.942-42.538-50.942-67.88v-73.05c0-22.109 23.531-40.08 52.364-40.08h434.683c28.832 0 52.363 17.971 52.363 40.08v73.05c0 25.342-18.1 49.39-50.941 67.88-20.816 11.765-46.287 20.17-68.784 23.143v18.877c-0.13 7.24-7.628 12.93-16.937 12.93z m-249.277-25.73h232.469v-17.712c0-7.111 7.499-12.93 16.808-12.93 15.644 0 42.02-5.947 65.68-19.264 13.835-7.887 37.237-24.307 37.237-47.063v-73.05c0-7.887-8.404-14.223-18.618-14.223H296.08c-10.344 0-18.618 6.336-18.618 14.223v73.05c0 22.756 23.272 39.305 37.236 47.063 23.66 13.317 50.036 19.264 65.68 19.264 9.31 0 16.809 5.819 16.809 12.93v17.713z m0 0" fill="#767777" p-id="14553"></path><path d="M260.525 552.34H766.19v20.557H260.525v-20.558z m511.742-170.15H496.485c-7.37 0-13.447-4.655-13.447-10.344s6.077-10.343 13.447-10.343h275.911c7.37 0 13.446 4.655 13.446 10.343s-6.076 10.344-13.575 10.344z m0 45.252H496.485c-7.37 0-13.447-4.654-13.447-10.343s6.077-10.343 13.447-10.343h275.911c7.37 0 13.446 4.654 13.446 10.343-0.129 5.689-6.076 10.343-13.575 10.343z m-493.77-45.252h-22.756c-7.37 0-13.446-4.655-13.446-10.344s6.077-10.343 13.446-10.343h22.756c7.37 0 13.446 4.655 13.446 10.343s-6.076 10.344-13.446 10.344z m0 45.252h-22.756c-7.37 0-13.446-4.654-13.446-10.343s6.077-10.343 13.446-10.343h22.756c7.37 0 13.446 4.654 13.446 10.343s-6.076 10.343-13.446 10.343z m0 0" fill="#2EB0E6" p-id="14554"></path><path d="M494.158 341.463c0-5.69-6.077-10.344-13.447-10.344h-0.258c-1.552 0-10.085 0.388-19.007 4.008-12.929 5.301-20.04 14.998-20.04 27.152V440.5c0 9.18-10.86 12.8-12.153 13.188h0.129c-4.784 1.551-8.275 5.172-8.275 9.568 0 5.688 6.077 10.343 13.447 10.343 1.422 0 2.844-0.259 4.266-0.517 0.13 0 1.035-0.259 1.422-0.388 10.99-3.62 28.057-13.834 28.057-32.065V362.28c0-5.56 2.844-7.628 5.301-8.663 3.49-1.551 7.499-1.81 7.628-1.81h-0.258c7.37-0.13 13.188-4.784 13.188-10.343z m-65.164 0c0-5.69-6.077-10.344-13.447-10.344h-0.258c-1.552 0-10.085 0.388-19.006 4.008-12.93 5.301-20.04 14.998-20.04 27.152V440.5c0 9.18-10.861 12.8-12.154 13.188h0.13c-4.785 1.551-8.276 5.172-8.276 9.568 0 5.688 6.077 10.343 13.447 10.343 1.422 0 2.844-0.259 4.267-0.517 0.129 0 1.034-0.259 1.422-0.388 10.99-3.62 28.056-13.834 28.056-32.065V362.28c0-5.56 2.845-7.628 5.301-8.663 3.491-1.551 7.5-1.81 7.629-1.81h-0.259c7.37-0.13 13.188-4.784 13.188-10.343z m-70.465 0c0-5.69-6.076-10.344-13.446-10.344h-0.259c-1.68 0-10.085 0.388-19.006 4.008-12.93 5.301-20.04 14.998-20.04 27.152V440.5c0 9.18-10.86 12.8-12.154 13.188h0.13c-4.784 1.551-8.275 5.172-8.275 9.568 0 5.688 6.077 10.343 13.446 10.343 1.422 0 2.845-0.259 4.267-0.517 0.13 0 1.034-0.259 1.422-0.388 10.99-3.62 28.057-13.834 28.057-32.065V362.28c0-5.56 2.844-7.628 5.3-8.663 3.492-1.551 7.5-1.81 7.629-1.81h-0.259c7.37-0.13 13.188-4.784 13.188-10.343z m0 0" fill="#2EB0E6" p-id="14555"></path></svg>