<?xml version="1.0" standalone="no"?><!DOCTYPE svg PUBLIC "-//W3C//DTD SVG 1.1//EN" "http://www.w3.org/Graphics/SVG/1.1/DTD/svg11.dtd"><svg t="1724055925867" class="icon" viewBox="0 0 1024 1024" version="1.1" xmlns="http://www.w3.org/2000/svg" p-id="6083" xmlns:xlink="http://www.w3.org/1999/xlink" width="128" height="128"><path d="M208 200L128 176V128l80 24z" fill="#FF5252" p-id="6084"></path><path d="M208 208a8.112 8.112 0 0 1-2.304-0.336l-80-24A8 8 0 0 1 120 176V128a8 8 0 0 1 10.304-7.648l80 24a7.984 7.984 0 0 1 5.696 7.648v48a8 8 0 0 1-8 8z m-72-37.952l64 19.2V157.952l-64-19.2v31.296z" fill="#263238" p-id="6085"></path><path d="M112 264l80-24v-48l-80 24z" fill="#FF5252" p-id="6086"></path><path d="M112 272a7.968 7.968 0 0 1-8-8v-48a8 8 0 0 1 5.696-7.664l80-24A7.952 7.952 0 0 1 200 192v48a8 8 0 0 1-5.696 7.664l-80 24A8.112 8.112 0 0 1 112 272z m8-50.048v31.296l64-19.2v-31.296l-64 19.2zM176 472H96a8 8 0 0 1 0-16h80a8 8 0 0 1 0 16zM64 472H48a8 8 0 0 1 0-16h16a8 8 0 0 1 0 16zM648 408h-80a8 8 0 0 1 0-16h80a8 8 0 0 1 0 16zM696 408h-16a8 8 0 0 1 0-16h16a8 8 0 0 1 0 16zM992 1000a8 8 0 0 1-8-8v-56c0-17.648-14.352-32-32-32h-880c-17.648 0-32 14.352-32 32V992a8 8 0 0 1-16 0v-56c0-26.464 21.536-48 48-48h880c26.464 0 48 21.536 48 48V992a8 8 0 0 1-8 8z" fill="#263238" p-id="6087"></path><path d="M352 472A167.712 167.712 0 0 1 191.152 352C165.072 351.552 144 330.192 144 304s21.072-47.552 47.152-48C212.256 184.992 277.456 136 352 136s139.744 48.992 160.848 120c26.08 0.448 47.152 21.808 47.152 48s-21.072 47.552-47.152 48A167.712 167.712 0 0 1 352 472z m-155.856-136.368c3.744 0 7.808 2.32 8.704 5.888C222 408.928 282.512 456 352 456s130-47.072 147.136-114.48a7.936 7.936 0 0 1 8.784-5.968c2.096 0.288 3.072 0.448 4.08 0.448 17.648 0 32-14.352 32-32s-14.352-32-32-32c-1.008 0-1.984 0.16-2.96 0.304-4.064 0.496-8.896-1.856-9.904-5.808C482 199.072 421.488 152 352 152s-130 47.072-147.136 114.48a8.048 8.048 0 0 1-8.784 5.968C193.984 272.16 193.008 272 192 272c-17.648 0-32 14.352-32 32s14.352 32 32 32c1.008 0 1.984-0.16 2.96-0.304a14.288 14.288 0 0 1 1.184-0.064zM512 872a8 8 0 0 1-8-8v-56a8 8 0 0 1 16 0V864a8 8 0 0 1-8 8zM254.944 584a8.016 8.016 0 0 1-7.984-7.328l-6.416-76.272a7.968 7.968 0 0 1 4.384-7.824l39.472-19.728c3.632-1.824 8-0.64 10.24 2.72l32 48a8 8 0 0 1-1.904 10.88l-65.056 48a7.952 7.952 0 0 1-4.736 1.552z m2.016-79.536l4.768 56.592 47.392-34.976-23.856-35.776-28.304 14.16zM448.896 584a7.952 7.952 0 0 1-4.752-1.568l-64.896-48a8.016 8.016 0 0 1-1.904-10.88l32-48a8 8 0 0 1 10.24-2.72l39.472 19.728a8 8 0 0 1 4.384 7.84l-6.576 76.272a8 8 0 0 1-7.968 7.328z m-54.016-57.904l47.28 34.976 4.88-56.608-28.288-14.144-23.872 35.776z" fill="#263238" p-id="6088"></path><path d="M368 584h-32c-13.232 0-24-10.768-24-24v-16c0-13.232 10.768-24 24-24h32c13.232 0 24 10.768 24 24v16c0 13.232-10.768 24-24 24z m-32-48a8 8 0 0 0-8 8v16a8 8 0 0 0 8 8h32a8 8 0 0 0 8-8v-16a8 8 0 0 0-8-8h-32zM352 392a87.392 87.392 0 0 1-62.224-25.776 8 8 0 0 1 11.312-11.312c13.6 13.616 31.68 21.088 50.912 21.088s37.312-7.488 50.912-21.088a8 8 0 0 1 11.312 11.312A87.392 87.392 0 0 1 352 392z" fill="#263238" p-id="6089"></path><path d="M380.096 541.84a7.984 7.984 0 0 1-6.128-2.864A7.936 7.936 0 0 0 368 536h-32a7.952 7.952 0 0 0-5.984 2.992 7.856 7.856 0 0 1-6.56 2.848 8.048 8.048 0 0 1-6.224-3.552l-35.904-53.84A8.144 8.144 0 0 1 280 480v-29.408c0-2.704 1.36-5.216 3.632-6.688a7.952 7.952 0 0 1 7.584-0.64 152.064 152.064 0 0 0 121.6 0 7.952 7.952 0 0 1 7.584 0.64 7.952 7.952 0 0 1 3.632 6.688V480a7.936 7.936 0 0 1-1.344 4.432l-35.904 53.84a8 8 0 0 1-6.224 3.552l-0.464 0.016zM336 520h32c3.536 0 6.992 0.832 10.144 2.352l29.856-44.784v-15.216c-36 12.816-76 12.816-112 0v15.216l29.856 44.784A23.36 23.36 0 0 1 336 520z" fill="#263238" p-id="6090"></path><path d="M200 304H192v-80h48v40a40 40 0 0 1-40 40z" fill="#FFD740" p-id="6091"></path><path d="M200 312H192a8 8 0 0 1-8-8v-80a8 8 0 0 1 8-8h48a8 8 0 0 1 8 8v40c0 26.464-21.536 48-48 48z m0-16h0.16-0.16z m0-64v64c17.648 0 32-14.352 32-32v-32h-32z" fill="#263238" p-id="6092"></path><path d="M464 224H192v-8A120 120 0 0 1 312 96h85.52c43.504 0 86.176-11.824 123.472-34.208L544 48v96a80 80 0 0 1-80 80z" fill="#FFD740" p-id="6093"></path><path d="M464 232H192a8 8 0 0 1-8-8v-8c0-70.576 57.424-128 128-128h85.52c42.032 0 83.312-11.44 119.36-33.056l23.008-13.792A8 8 0 0 1 552 48v96c0 48.512-39.472 88-88 88z m-264-16H464c39.696 0 72-32.304 72-72V62.128l-10.88 6.528A248.128 248.128 0 0 1 397.52 104H312c-61.76 0-112 50.256-112 112z" fill="#263238" p-id="6094"></path><path d="M464 224v40a40 40 0 0 0 40 40h8v-96.368A79.296 79.296 0 0 1 464 224z" fill="#FFD740" p-id="6095"></path><path d="M512 312h-8c-26.464 0-48-21.536-48-48V224a8 8 0 0 1 8-8c15.472 0 30.4-5.088 43.184-14.752a7.984 7.984 0 1 1 12.816 6.384V304a8 8 0 0 1-8 8z m-40-80.368V264c0 17.648 14.352 32 32 32v-73.856a86.032 86.032 0 0 1-32 9.488zM784 872a8 8 0 0 1-8-8v-136h-80V864a8 8 0 0 1-16 0v-144a8 8 0 0 1 8-8h96a8 8 0 0 1 8 8v144a8 8 0 0 1-8 8z" fill="#263238" p-id="6096"></path><path d="M920 792H816a8 8 0 0 1 0-16h104c17.648 0 32-14.352 32-32v-240c0-17.648-14.352-32-32-32h-368c-17.648 0-32 14.352-32 32v240c0 17.648 14.352 32 32 32H656a8 8 0 0 1 0 16h-104c-26.464 0-48-21.536-48-48v-240c0-26.464 21.536-48 48-48h368c26.464 0 48 21.536 48 48v240c0 26.464-21.536 48-48 48zM480 520a7.952 7.952 0 0 1-3.568-0.848l-64-32a8 8 0 0 1 7.152-14.32l64 32A8 8 0 0 1 480 520zM608 872a8 8 0 0 1-8-8v-57.136a8 8 0 0 1 16 0V864a8 8 0 0 1-8 8z" fill="#263238" p-id="6097"></path><path d="M736.752 664c-22.048 0-40-17.936-40-40s17.952-40 40-40 40 17.936 40 40-17.952 40-40 40z m0-64c-13.232 0-24 10.768-24 24s10.768 24 24 24 24-10.768 24-24-10.768-24-24-24z" fill="#263238" p-id="6098"></path><path d="M832 160m-128 0a128 128 0 1 0 256 0 128 128 0 1 0-256 0Z" fill="#40C4FF" p-id="6099"></path><path d="M832 296c-74.992 0-136-61.008-136-136s61.008-136 136-136 136 61.008 136 136-60.992 136-136 136z m0-256c-66.176 0-120 53.824-120 120s53.824 120 120 120 120-53.824 120-120-53.824-120-120-120z" fill="#263238" p-id="6100"></path><path d="M832 176a8 8 0 0 1-3.968-1.04l-56-32a8 8 0 0 1 7.936-13.92L824 154.224V88a8 8 0 0 1 16 0v80a8 8 0 0 1-8 8z" fill="#263238" p-id="6101"></path><path d="M176 176h352v64H176z" fill="#FF5252" p-id="6102"></path><path d="M528 248H176a8 8 0 0 1-8-8v-64a8 8 0 0 1 8-8h352a8 8 0 0 1 8 8v64a8 8 0 0 1-8 8z m-344-16h336v-48h-336v48z" fill="#263238" p-id="6103"></path><path d="M368 872a8 8 0 0 1-8-8v-56H192a8 8 0 0 1-8-8v-112a8 8 0 0 1 16 0v104H368a8 8 0 0 1 8 8v64a8 8 0 0 1-8 8z" fill="#263238" p-id="6104"></path><path d="M393.488 768L368 576h-32l-25.488 192" fill="#40C4FF" p-id="6105"></path><path d="M393.488 776a8 8 0 0 1-7.92-6.96L360.992 584h-17.984l-24.576 185.04a8 8 0 1 1-15.872-2.096l25.488-192A8.048 8.048 0 0 1 336 568h32c4 0 7.408 2.976 7.936 6.96l25.488 192a8.016 8.016 0 0 1-7.936 9.04z" fill="#263238" p-id="6106"></path><path d="M112.368 872a7.968 7.968 0 0 1-6.384-3.168A87.168 87.168 0 0 1 88 816V625.44a87.504 87.504 0 0 1 48.656-78.704l147.776-73.888a8 8 0 0 1 7.152 14.32l-147.776 73.888A71.536 71.536 0 0 0 104 625.44V816c0 15.488 5.104 30.4 14.736 43.168a8 8 0 0 1-6.368 12.832z" fill="#263238" p-id="6107"></path><path d="M464 872a8 8 0 0 1-8-8v-24c0-17.648-14.352-32-32-32H400a8 8 0 0 1 0-16h24c26.464 0 48 21.536 48 48V864a8 8 0 0 1-8 8z" fill="#263238" p-id="6108"></path><path d="M912 600a8 8 0 0 1-8-8v-64a8 8 0 0 0-8-8h-64a8 8 0 0 1 0-16h64c13.232 0 24 10.768 24 24v64a8 8 0 0 1-8 8z" fill="#263238" p-id="6109"></path></svg>