<?xml version="1.0" standalone="no"?><!DOCTYPE svg PUBLIC "-//W3C//DTD SVG 1.1//EN" "http://www.w3.org/Graphics/SVG/1.1/DTD/svg11.dtd"><svg t="1724749048158" class="icon" viewBox="0 0 1024 1024" version="1.1" xmlns="http://www.w3.org/2000/svg" p-id="5501" xmlns:xlink="http://www.w3.org/1999/xlink" width="256" height="256"><path d="M792 242.2c0-12.8-22-48.8-48.8-48.8h-389c-26.9 0-48.8 39-48.8 48.8l-8 65.5s0 0.1-0.1 0.1c-72.5 12.9-177.7 57.3-177.7 205.5 0 135.1 50.5 204.3 105.7 239.5 10.1 6.5 15.8 18 14.3 29.9l-15.6 128c0 26.9 22 48.8 48.8 48.8h551.7c26.9 0 48.8-22 48.8-48.8L792 242.2zM244.5 662.7c-37.3-26-56.2-73.2-56.2-140.3 0-47.4 17.5-79.7 53.6-98.7 14.3-7.5 29.5-11.9 43.1-14.5 0 0 0.1 0 0.1 0.1L253.5 669l-9-6.3z" fill="#83CDFF" p-id="5502"></path><path d="M228.4 898.1h636.2v26l-33.1 30.7H272.8l-36.1-16.5z" fill="#FFF188" p-id="5503"></path><path d="M775 228h131.4s-38.6 91.6-115.9 118.2c0-0.1-7-49.4-15.5-118.2z" fill="#4F95FC" p-id="5504"></path><path d="M876.8 245.9c-13.6 22.6-37.7 55.2-71.8 74.2-2.4-17.3-5.8-43.2-9.7-74.2h81.5m29.6-17.9H775c8.5 68.8 15.5 118.2 15.5 118.2C867.8 319.6 906.4 228 906.4 228z" fill="" p-id="5505"></path><path d="M743.1 211.2c14.4 0 29.8 23.6 30.9 31.2v0.8l0.1 1.1 81.3 667.3c-0.5 16.6-14.3 30-30.9 30H272.8c-16.7 0-30.4-13.4-30.9-30l15-122.9c2.5-20.9-6.7-41.1-24.2-52.6-63.1-41.7-95.1-116.7-95.1-223 0-129.2 86.2-173 158.6-187.1 10.5-2 18.4-10.5 19.7-21.1l7.4-60.7 0.1-1.1v-0.1c2.1-8.2 18.1-31.9 30.9-31.9h388.8m-495 470.7c12.4 0 22.9-9.3 24.4-21.6l29.2-239.7c0.8-7-1.3-14-6-19.2-4.6-5.2-11.3-8.3-18.3-8.3-1.9 0-3.9 0.2-5.8 0.7-13.9 3.4-26.7 8.1-38.1 14.1-41.9 22-63.2 60.6-63.2 114.5 0 73.3 21.5 125.4 64 155.1 4.1 2.9 8.9 4.4 13.8 4.4m495-488.5H354.2c-26.9 0-48.8 39-48.8 48.8l-7.4 60.7c-0.3 2.8-2.5 5.1-5.3 5.7-72.3 14-173.1 59.6-173.1 204.6 0 133 49 202.1 103.1 237.9 11.7 7.8 18 21.5 16.3 35.5l-15 123.6c0 0.4-0.1 0.7-0.1 1.1 0.3 26.6 22.2 48.3 48.8 48.3h551.7c26.7 0 48.5-21.7 48.8-48.3 0-0.4 0-0.7-0.1-1.1l-81.3-668c0.2-12.7-21.8-48.8-48.7-48.8z m-495 470.6c-1.2 0-2.5-0.4-3.6-1.1 0 0-0.1 0-0.1-0.1-37.3-26-56.2-73.2-56.2-140.3 0-47.4 17.5-79.7 53.6-98.7 11.2-5.9 22.9-9.9 34-12.6 0.5-0.1 1-0.2 1.6-0.2 3.8 0 7 3.4 6.5 7.4L254.7 658c-0.4 3.5-3.4 5.9-6.6 5.9z" fill="" p-id="5506"></path><path d="M305.4 242.2S320.8 64 548.7 64 792 242.2 792 242.2H305.4z" fill="#4F95FC" p-id="5507"></path><path d="M548.7 81.9c166.2 0 210.4 99.2 221.7 142.4H327c11.3-43.2 55.5-142.4 221.7-142.4m0-18c-227.9 0-243.3 178.2-243.3 178.2H792c0 0.1-15.4-178.2-243.3-178.2zM864.6 882.1H234.7V900h629.9v-17.9z" fill="" p-id="5508"></path></svg>